{
  "accessors": [
    {
      "bufferView": 1,
      "componentType": 5126,
      "count": 513,
      "max": [
        152.6513671875,
        206.60469055175781,
        152.65133666992188
      ],
      "min": [
        -152.65133666992188,
        -43.549667358398438,
        -152.65133666992188
      ],
      "type": "VEC3"
    },
    {
      "bufferView": 1,
      "byteOffset": 6156,
      "componentType": 5126,
      "count": 513,
      "max": [
        0.9629443883895874,
        0.60348802804946899,
        0.96294432878494263
      ],
      "min": [
        -0.96294385194778442,
        -1,
        -0.96294432878494263
      ],
      "type": "VEC3"
    },
    {
      "bufferView": 2,
      "componentType": 5126,
      "count": 513,
      "max": [
        1,
        0.42613375186920166,
        0.99988013505935669,
        1
      ],
      "min": [
        -0.98078536987304688,
        -0.42613375186920166,
        -0.99988019466400146,
        -1
      ],
      "type": "VEC4"
    },
    {
      "bufferView": 0,
      "componentType": 5125,
      "count": 720,
      "max": [
        512
      ],
      "min": [
        0
      ],
      "type": "SCALAR"
    },
    {
      "bufferView": 3,
      "componentType": 5126,
      "count": 150,
      "max": [
        5
      ],
      "min": [
        0.041666667908430099
      ],
      "type": "SCALAR"
    },
    {
      "bufferView": 4,
      "componentType": 5126,
      "count": 150,
      "max": [
        1,
        4.2483410616849814e-17,
        1,
        8.6594421511628367e-17
      ],
      "min": [
        -0.69380670785903931,
        -8.6594421511628367e-17,
        -0.70522171258926392,
        -8.657075091121955e-17
      ],
      "type": "VEC4"
    }
  ],
  "animations": [
    {
      "channels": [
        {
          "sampler": 0,
          "target": {
            "node": 5,
            "path": "rotation"
          }
        }
      ],
      "name": "Take 001",
      "samplers": [
        {
          "input": 4,
          "interpolation": "LINEAR",
          "output": 5
        }
      ]
    }
  ],
  "asset": {
    "extras": {
      "author": "Harry_L (https://sketchfab.com/Harry_L)",
      "license": "CC-BY-4.0 (http://creativecommons.org/licenses/by/4.0/)",
      "source": "https://sketchfab.com/models/9349ff66847a4bf1b4151d6af288e42c",
      "title": "Diamond"
    },
    "generator": "Sketchfab-3.18.6",
    "version": "2.0"
  },
  "bufferViews": [
    {
      "buffer": 0,
      "byteLength": 2880,
      "byteOffset": 0,
      "name": "floatBufferViews",
      "target": 34963
    },
    {
      "buffer": 0,
      "byteLength": 12312,
      "byteOffset": 2880,
      "byteStride": 12,
      "name": "floatBufferViews",
      "target": 34962
    },
    {
      "buffer": 0,
      "byteLength": 8208,
      "byteOffset": 15192,
      "byteStride": 16,
      "name": "floatBufferViews",
      "target": 34962
    },
    {
      "buffer": 0,
      "byteLength": 600,
      "byteOffset": 23400,
      "name": "floatBufferViews"
    },
    {
      "buffer": 0,
      "byteLength": 2400,
      "byteOffset": 24000,
      "byteStride": 16,
      "name": "floatBufferViews"
    }
  ],
  "buffers": [
    {
      "byteLength": 26400,
      "uri": "scene.bin"
    }
  ],
  "extensionsRequired": [
    "KHR_materials_pbrSpecularGlossiness"
  ],
  "extensionsUsed": [
    "KHR_materials_pbrSpecularGlossiness"
  ],
  "materials": [
    {
      "alphaMode": "BLEND",
      "doubleSided": true,
      "extensions": {
        "KHR_materials_pbrSpecularGlossiness": {
          "diffuseFactor": [
            0,
            0,
            0,
            0.2421875
          ],
          "glossinessFactor": 1,
          "specularFactor": [
            0.82488567069999996,
            0.82488567069999996,
            0.82488567069999996
          ]
        }
      },
      "name": "blinn1"
    }
  ],
  "meshes": [
    {
      "name": "pCone1_blinn1_0",
      "primitives": [
        {
          "attributes": {
            "NORMAL": 1,
            "POSITION": 0,
            "TANGENT": 2
          },
          "indices": 3,
          "material": 0,
          "mode": 4
        }
      ]
    }
  ],
  "nodes": [
    {
      "children": [
        1
      ],
      "name": "RootNode (gltf orientation matrix)",
      "rotation": [
        -0.70710678118654746,
        -0,
        -0,
        0.70710678118654757
      ]
    },
    {
      "children": [
        2
      ],
      "name": "RootNode (model correction matrix)"
    },
    {
      "children": [
        3
      ],
      "matrix": [
        1,
        0,
        0,
        0,
        0,
        0,
        1,
        0,
        0,
        -1,
        0,
        0,
        0,
        0,
        0,
        1
      ],
      "name": "fcfdd9b083634844b2de599ff7a9d0f3.fbx"
    },
    {
      "children": [
        4
      ],
      "name": ""
    },
    {
      "children": [
        5
      ],
      "name": "RootNode"
    },
    {
      "children": [
        6
      ],
      "name": "pCone1",
      "rotation": [
        -0.053222175687551498,
        1.3325358213571122e-16,
        0.99858272075653076,
        2.5001744449163095e-15
      ],
      "translation": [
        13.255425453186035,
        247.94613647460938,
        3.0620102882385254
      ]
    },
    {
      "mesh": 0,
      "name": "pCone1_blinn1_0"
    }
  ],
  "scene": 0,
  "scenes": [
    {
      "name": "OSG_Scene",
      "nodes": [
        0
      ]
    }
  ]
}

